<?xml version="1.0" standalone="no"?>
<!DOCTYPE svg PUBLIC "-//W3C//DTD SVG 1.1//EN" "http://www.w3.org/Graphics/SVG/1.1/DTD/svg11.dtd" >
<svg xmlns="http://www.w3.org/2000/svg">
<metadata>
This is a custom SVG webfont generated by Fontspring.
</metadata>
<defs>
<font id="BlueHighwayRegular" horiz-adv-x="1165" >
<font-face units-per-em="2048" ascent="1556" descent="-492" />
<missing-glyph horiz-adv-x="614" />
<glyph unicode=" "  horiz-adv-x="614" />
<glyph unicode="&#x09;" horiz-adv-x="614" />
<glyph unicode="&#xa0;" horiz-adv-x="614" />
<glyph unicode="!" horiz-adv-x="473" d="M117 147q0 63 33.5 106.5t87.5 43.5q45 0 81.5 -44t36.5 -106q0 -59 -36.5 -103t-81.5 -44q-53 0 -87 43t-34 104zM123 862v608h219v-608l-53 -416h-99z" />
<glyph unicode="&#x22;" horiz-adv-x="655" d="M76 1544h188l-41 -637h-112zM389 1544h189l-41 -637h-113z" />
<glyph unicode="#" horiz-adv-x="1310" d="M76 369v166h268l80 407h-252v168h291l65 360h134l-70 -360h293l73 360h127l-71 -360h223v-168h-258l-86 -407h248v-166h-277l-80 -369h-122l73 369h-295l-78 -369h-124l71 369h-233zM473 532h295l86 412h-299z" />
<glyph unicode="$" horiz-adv-x="1077" d="M84 1049q0 115 91 195.5t251 92.5v133h219v-124q184 -23 283 -86l-64 -209q-66 49 -219 77v-264q352 -76 352 -356q0 -315 -352 -373v-135h-219v131q-207 27 -336 92l70 201q121 -66 266 -90v360q-342 103 -342 355zM319 1026q0 -33 29 -63.5t78 -47.5v224 q-107 -13 -107 -113zM645 340q139 47 139 168q0 90 -139 143v-311z" />
<glyph unicode="%" horiz-adv-x="1654" d="M102 1083.5q0 200.5 77 309t220 108.5q150 0 228 -107.5t78 -310t-77 -311t-225 -108.5q-143 0 -222 109.5t-79 310zM141 0l1198 1470h174l-1204 -1470h-168zM244 1083q0 -274 159.5 -274t159.5 274q0 141 -37 211t-123 70q-159 0 -159 -281zM950 387q0 201 77 309.5 t220 108.5q150 0 227.5 -107.5t77.5 -310.5t-76.5 -311.5t-224.5 -108.5q-143 0 -222 109.5t-79 310.5zM1092 387q0 -274 159.5 -274t159.5 274q0 141 -37 211t-123 70q-159 0 -159 -281z" />
<glyph unicode="&#x26;" horiz-adv-x="1380" d="M59 408q0 260 258 403q-180 147 -180 352q0 90 39 156.5t104.5 102.5t134 52.5t142.5 16.5q371 0 383 -309l-240 -86q-10 102 -48 144t-111 42q-152 0 -152 -162q0 -61 92 -173.5t422 -434.5q57 113 74 311h242q0 -137 -44.5 -281.5t-93.5 -222.5l299 -319h-307l-147 168 q-61 -88 -177 -138t-221 -50q-213 0 -341 113.5t-128 314.5zM309 438q0 -109 61.5 -164t174.5 -55q70 0 131 31t92 80l-322 332q-137 -91 -137 -224z" />
<glyph unicode="'" horiz-adv-x="342" d="M76 1544h188l-41 -637h-112z" />
<glyph unicode="(" horiz-adv-x="686" d="M188 575q0 510 265 955h190q-291 -395 -291 -955q0 -494 297 -956h-196q-265 448 -265 956z" />
<glyph unicode=")" horiz-adv-x="686" d="M37 -381q297 463 297 956q0 559 -291 955h190q264 -444 265 -955q0 -508 -265 -956h-196z" />
<glyph unicode="*" horiz-adv-x="1036" d="M59 1163l66 117l332 -195l-11 385h129v-385l328 203l70 -117l-336 -188l338 -182l-66 -117l-331 197l10 -387h-129v385l-328 -203l-68 117l336 188z" />
<glyph unicode="+" d="M63 633v186h426v424h187v-424h424v-186h-424v-426h-187v426h-426z" />
<glyph unicode="," horiz-adv-x="419" d="M88 147q0 63 34 106.5t87 43.5q45 0 82 -44t37 -106q0 -129 -52.5 -221t-146.5 -108v35q53 12 76.5 43.5t32.5 103.5h-37q-51 0 -82 44t-31 103z" />
<glyph unicode="-" horiz-adv-x="473" d="M45 686v217h383v-217h-383z" />
<glyph unicode="." horiz-adv-x="440" d="M102 147q0 66 31 108t84 42q49 0 84 -44t35 -106q0 -59 -36 -103t-83 -44q-51 0 -83 43t-32 104z" />
<glyph unicode="/" horiz-adv-x="774" d="M25 -197l557 1727h166l-560 -1727h-163z" />
<glyph unicode="0" horiz-adv-x="1277" d="M102 735.5q0 362.5 137.5 559t395.5 196.5q264 0 403.5 -195.5t139.5 -560.5q0 -367 -137.5 -561t-401.5 -194q-256 0 -396.5 196.5t-140.5 559zM319 735q0 -535 320 -534q322 0 322 534q0 272 -76 407.5t-246 135.5q-320 0 -320 -543z" />
<glyph unicode="1" horiz-adv-x="544" d="M59 1137v200q70 4 119 40t62 93h174v-1470h-217v1137h-138z" />
<glyph unicode="2" horiz-adv-x="1079" d="M109 0v117q0 244 79.5 389t257.5 248q31 18 89.5 45.5t86 44t62.5 47.5t49.5 73t14.5 99q0 193 -199 192q-94 0 -162 -32.5t-121 -120.5l-147 190q156 199 442 199q182 0 295 -110.5t113 -305.5q0 -190 -92.5 -295.5t-276.5 -199.5q-242 -125 -242 -363h611v-217h-860z " />
<glyph unicode="3" horiz-adv-x="1026" d="M90 188l186 134q61 -127 220 -127q92 0 154.5 66.5t62.5 168.5q0 131 -61.5 193.5t-170.5 62.5h-86v217h86q170 0 170 197q0 80 -42 127t-120 47q-61 0 -92.5 -20.5t-64.5 -67.5l-182 71q23 86 117.5 160t226.5 74q156 0 256 -99.5t100 -277.5q0 -221 -150 -307 q92 -31 162 -134.5t70 -240.5q0 -203 -118 -327.5t-320 -124.5q-289 -1 -404 208z" />
<glyph unicode="4" horiz-adv-x="1116" d="M55 381v184l590 905h234v-874h151v-215h-151v-381h-215v381h-609zM307 596h357v547z" />
<glyph unicode="5" horiz-adv-x="1114" d="M109 94l116 217q143 -104 291 -104q129 0 209 72.5t80 201.5q0 135 -70.5 211t-173.5 76q-123 0 -219 -104l-213 90l57 716h742v-219h-545l-31 -340q90 80 219 80q207 0 325 -135t118 -377q0 -240 -136.5 -369.5t-357.5 -129.5q-259 -1 -411 114z" />
<glyph unicode="6" horiz-adv-x="1052" d="M92 565q0 240 79 443.5t219 328.5t312 140l37 -205q-172 -37 -282.5 -140.5t-145.5 -314.5q43 57 121 99t150 42q170 0 277.5 -130t107.5 -339q0 -246 -121 -377.5t-330 -131.5q-195 0 -309.5 157.5t-114.5 427.5zM307 475q0 -129 58.5 -204.5t162.5 -75.5 q106 0 174 75.5t68 202.5t-64.5 203t-164.5 76q-106 0 -170 -75t-64 -202z" />
<glyph unicode="7" horiz-adv-x="1032" d="M88 1251v219h879v-251q-193 -176 -315 -512t-126 -707h-233q20 389 127.5 724t288.5 527h-621z" />
<glyph unicode="8" horiz-adv-x="1079" d="M94 440q0 145 66.5 260t165.5 144q-133 94 -133 289q0 164 93 261t253 97q174 0 269 -89t95 -272q0 -199 -151 -296q113 -25 178 -138.5t65 -255.5q0 -217 -122.5 -338.5t-331.5 -121.5q-205 0 -326 121.5t-121 338.5zM297 444q0 -125 69.5 -193.5t180.5 -68.5 q248 0 248 262q0 274 -248 275q-119 0 -184.5 -69t-65.5 -206zM371 1102q0 -84 47 -130t129 -46q76 0 121 49t45 127q0 188 -166 188q-176 0 -176 -188z" />
<glyph unicode="9" horiz-adv-x="1058" d="M84 973q0 248 121 383t338 135q197 0 309.5 -160t112.5 -434q0 -367 -176.5 -634t-440.5 -279l-26 206q152 12 270.5 137.5t148.5 336.5q-33 -66 -111.5 -113t-156.5 -47q-174 0 -281.5 131t-107.5 338zM289 991q0 -129 61.5 -203.5t163.5 -74.5q104 0 166.5 73.5 t62.5 200.5q0 129 -59 206t-161.5 77t-168 -77t-65.5 -202z" />
<glyph unicode=":" horiz-adv-x="477" d="M117 147q0 61 36.5 105.5t88.5 44.5q47 0 81.5 -43t34.5 -107q0 -59 -34.5 -103t-81.5 -44q-51 0 -88 44t-37 103zM117 946.5q0 61.5 36.5 104.5t88.5 43q47 0 81.5 -43t34.5 -104.5t-34.5 -104.5t-81.5 -43q-51 0 -88 43t-37 104.5z" />
<glyph unicode=";" horiz-adv-x="483" d="M125 946.5q0 63.5 34 105.5t87 42q49 0 87 -43t38 -104.5t-37 -104.5t-88 -43q-55 0 -88 42t-33 105.5zM125 147.5q0 63.5 32.5 106.5t88.5 43q49 0 87 -44t38 -106q0 -141 -52.5 -228t-152.5 -101v35q119 33 121 147h-45q-53 0 -85 42t-32 105.5z" />
<glyph unicode="&#x3c;" d="M63 633v188l1037 408v-207l-836 -297l836 -295v-207z" />
<glyph unicode="=" d="M63 326v186h1037v-186h-1037zM63 940v186h1037v-186h-1037z" />
<glyph unicode="&#x3e;" d="M63 223v207l836 295l-836 297v207l1037 -408v-188z" />
<glyph unicode="?" horiz-adv-x="929" d="M78 1323q127 168 399 168q174 0 277.5 -101.5t103.5 -283.5q0 -84 -36 -160t-74.5 -119t-110.5 -110q-37 -35 -58.5 -63.5t-31.5 -73.5t-11 -68t-6 -96h-221v20q0 266 170 424q94 88 121 129t27 117t-41 118t-113 42q-184 0 -285 -125zM297 147q0 61 37 105.5t88 44.5 q53 0 87 -43t34 -107q0 -61 -34 -104t-87 -43q-51 0 -88 44t-37 103z" />
<glyph unicode="@" horiz-adv-x="1277" d="M82 573q0 340 168 553t422 213q246 0 401.5 -162.5t155.5 -467.5q0 -190 -73 -304t-214 -114q-100 0 -139 69q-72 -72 -176 -71q-98 0 -152.5 81t-54.5 224q0 141 69.5 213t178.5 72q47 0 92 -41v34h119v-405q25 -51 82 -51q49 0 79.5 66.5t30.5 203.5q0 254 -99.5 382 t-283.5 128q-225 0 -333.5 -169t-108.5 -429q0 -233 102.5 -392t292.5 -196l-29 -155q-252 41 -391 248.5t-139 469.5zM551 594q0 -80 26.5 -125t75.5 -45q57 0 99 37v266q-31 39 -84 39q-61 0 -89 -50t-28 -122z" />
<glyph unicode="A" horiz-adv-x="1196" d="M12 0l434 1470h306l432 -1470h-234l-82 283h-540l-78 -283h-238zM389 500h418l-211 747z" />
<glyph unicode="B" horiz-adv-x="1144" d="M123 0v1470h475q160 0 272.5 -105t112.5 -288q0 -174 -133 -280q100 -25 170 -113t70 -238q0 -209 -127 -327.5t-357 -118.5h-483zM342 217h305q90 0 146.5 59.5t56.5 159.5q0 98 -53.5 153.5t-143.5 55.5h-311v-428zM342 862h260q72 0 119 60.5t47 138.5q0 82 -48 136 t-118 54h-260v-389z" />
<glyph unicode="C" horiz-adv-x="1282" d="M102 735.5q0 327.5 162 541.5t432 214q338 0 492 -266l-184 -123q-51 86 -121 120.5t-187 34.5q-170 0 -270 -142t-100 -380q0 -223 107.5 -371.5t271.5 -148.5q170 0 288 133l181 -121q-162 -248 -478 -247q-260 0 -427 214t-167 541.5z" />
<glyph unicode="D" horiz-adv-x="1310" d="M123 0v1470h412q305 0 496.5 -204.5t191.5 -524.5q0 -340 -197 -540.5t-504 -200.5h-399zM342 221h147q233 0 371.5 143.5t138.5 374.5q0 236 -133 374t-377 138h-147v-1030z" />
<glyph unicode="E" horiz-adv-x="1021" d="M123 0v1470h784v-219h-565v-389h354v-217h-354v-428h565v-217h-784z" />
<glyph unicode="F" horiz-adv-x="958" d="M123 0v1470h784v-219h-565v-389h365v-217h-365v-645h-219z" />
<glyph unicode="G" horiz-adv-x="1349" d="M102 735q0 346 164 551t426 205q178 0 295 -65.5t203 -204.5l-186 -119q-49 84 -119 119.5t-174 35.5q-178 0 -278.5 -132t-100.5 -390q0 -231 99 -379.5t261 -148.5q150 0 227.5 83t77.5 230h-282v219h547v-98q0 -281 -153 -471t-417 -190q-262 0 -426 214.5t-164 540.5 z" />
<glyph unicode="H" horiz-adv-x="1249" d="M123 0v1470h219v-608h565v608h219v-1470h-219v645h-565v-645h-219z" />
<glyph unicode="I" horiz-adv-x="481" d="M131 0v1470h219v-1470h-219z" />
<glyph unicode="J" horiz-adv-x="768" d="M0 4l27 207q55 -6 100 -6q313 0 313 352v913h217v-944q0 -211 -143 -373.5t-362 -162.5q-109 0 -152 14z" />
<glyph unicode="K" horiz-adv-x="1161" d="M123 0v1470h219v-780l520 780h264l-421 -641l452 -829h-272l-336 631l-207 -305v-326h-219z" />
<glyph unicode="L" horiz-adv-x="993" d="M123 0v1470h219v-1253h614v-217h-833z" />
<glyph unicode="M" horiz-adv-x="1466" d="M123 0v1470h303l319 -897l314 897h284v-1470h-217v1059l-374 -1059h-13l-397 1061v-1061h-219z" />
<glyph unicode="N" horiz-adv-x="1267" d="M123 0v1470h270l533 -1048v1048h219v-1470h-250l-555 1094v-1094h-217z" />
<glyph unicode="O" horiz-adv-x="1384" d="M102 735q0 350 162 553t428 203t428 -203t162 -553t-162 -552.5t-428 -202.5t-428 202.5t-162 552.5zM317 735q0 -256 104.5 -391t270.5 -135t270.5 135t104.5 391q0 260 -99.5 394.5t-275.5 134.5t-275.5 -134.5t-99.5 -394.5z" />
<glyph unicode="P" horiz-adv-x="1142" d="M123 0v1470h518q209 0 335 -114.5t126 -331.5q0 -211 -124 -327.5t-337 -116.5h-299v-580h-219zM342 797h317q225 0 226 221q0 233 -226 233h-317v-454z" />
<glyph unicode="Q" horiz-adv-x="1384" d="M102 735q0 350 162 553t428 203t428 -203t162 -553q0 -360 -176 -569l111 -143l-164 -132l-105 148q-115 -59 -256 -59q-266 0 -428 202.5t-162 552.5zM317 735q0 -258 104.5 -396t270.5 -138q70 0 123 22l-205 269l162 137l199 -279q96 143 96 385q0 260 -99.5 394.5 t-275.5 134.5t-275.5 -134.5t-99.5 -394.5z" />
<glyph unicode="R" horiz-adv-x="1167" d="M123 0v1470h518q223 0 342 -116.5t119 -329.5q0 -156 -74 -259t-205 -147l283 -618h-240l-262 580h-262v-580h-219zM342 797h317q225 0 226 221q0 233 -226 233h-317v-454z" />
<glyph unicode="S" horiz-adv-x="1093" d="M86 102l86 215q168 -115 365 -114q113 0 183.5 51t70.5 137q0 74 -62.5 131.5t-198.5 136.5q-16 10 -64 38t-76 44.5t-67.5 43t-72.5 54t-60 58.5q-51 55 -70.5 107.5t-19.5 136.5q0 164 129 257t312 93q133 0 241.5 -27.5t153.5 -77.5l-62 -225q-117 100 -317 101 q-109 0 -174.5 -41t-65.5 -117q0 -41 47.5 -87t89.5 -71.5t117 -66.5q117 -66 178.5 -105t131 -98.5t99.5 -125t30 -144.5q0 -195 -136.5 -310.5t-343.5 -115.5q-260 -1 -444 122z" />
<glyph unicode="T" horiz-adv-x="1099" d="M45 1251v219h1010v-219h-383v-1251h-240v1251h-387z" />
<glyph unicode="U" horiz-adv-x="1230" d="M115 528v942h217v-942q0 -176 74.5 -253.5t218.5 -77.5q135 0 204.5 76.5t69.5 254.5v942h217v-942q0 -252 -128 -400t-363 -148q-238 0 -374 148t-136 400z" />
<glyph unicode="V" horiz-adv-x="1193" d="M12 1470h254l330 -1196l332 1196h254l-451 -1470h-278z" />
<glyph unicode="W" horiz-adv-x="1822" d="M16 1470h236l268 -1163l268 1163h240l270 -1163l269 1163h239l-358 -1470h-305l-232 1063l-239 -1063h-305z" />
<glyph unicode="X" horiz-adv-x="1189" d="M25 0l426 741l-426 729h262l311 -540l315 540h252l-436 -737l420 -733h-256l-305 551l-307 -551h-256z" />
<glyph unicode="Y" horiz-adv-x="1126" d="M8 1470h248l309 -690l309 690h244l-430 -909v-561h-248v557z" />
<glyph unicode="Z" horiz-adv-x="1077" d="M84 0v223l676 1043h-676v204h922v-227l-678 -1040h682v-203h-926z" />
<glyph unicode="[" horiz-adv-x="669" d="M209 -381v1911h409v-160h-264v-1589h264v-162h-409z" />
<glyph unicode="\" horiz-adv-x="774" d="M25 1530h165l558 -1727h-164z" />
<glyph unicode="]" horiz-adv-x="669" d="M51 -219h264v1589h-264v160h410v-1911h-410v162z" />
<glyph unicode="^" d="M80 434l409 1036h189l407 -1036h-206l-297 836l-295 -836h-207z" />
<glyph unicode="_" horiz-adv-x="1169" d="M0 -96h1169v-166h-1169v166z" />
<glyph unicode="`" horiz-adv-x="569" d="M82 1495l98 129l307 -293l-67 -92z" />
<glyph unicode="a" horiz-adv-x="1019" d="M61 385q0 186 109 289.5t289 103.5q145 0 221 -80q0 135 -53.5 185.5t-163.5 50.5q-106 0 -180 -70l-101 168q115 121 314 121q180 0 291.5 -115.5t111.5 -306.5v-731h-217v82q-84 -102 -262 -102q-154 0 -256.5 111.5t-102.5 293.5zM283 389q0 -80 59 -133t141 -53 q55 0 115.5 29.5t81.5 74.5v187q-23 35 -73 60.5t-99 25.5q-225 -1 -225 -191z" />
<glyph unicode="b" horiz-adv-x="1110" d="M123 0v1417l219 94v-462q61 104 258 104q195 0 301.5 -158.5t106.5 -441.5q0 -246 -116 -409.5t-308 -163.5q-80 0 -145.5 39.5t-96.5 99.5v-119h-219zM342 727v-334q14 -63 75.5 -128.5t137.5 -65.5q115 0 180.5 102t65.5 252q0 186 -58.5 284.5t-195.5 98.5 q-76 0 -130.5 -58.5t-74.5 -150.5z" />
<glyph unicode="c" horiz-adv-x="987" d="M102 575q0 252 132.5 415t334.5 163q117 0 202 -45t130 -115l-168 -135q-59 72 -164 72q-111 0 -177 -98.5t-66 -258.5q0 -371 254 -370q86 0 153 78l180 -134q-135 -168 -344 -167q-217 0 -342 162.5t-125 432.5z" />
<glyph unicode="d" horiz-adv-x="1122" d="M102 543q0 276 119 444t307 168q186 0 254 -113v375l217 94v-1511h-217v119q-84 -139 -245 -139q-188 0 -311.5 161.5t-123.5 401.5zM319 535q0 -145 65 -236.5t179 -91.5q84 0 143.5 53t75.5 141v336q-20 74 -79.5 129.5t-133.5 55.5q-250 0 -250 -387z" />
<glyph unicode="e" horiz-adv-x="1099" d="M102 557.5q0 276.5 126 436t343 159.5q205 0 325 -143.5t120 -425.5q0 -90 -6 -140h-684q0 -104 71.5 -172.5t175.5 -68.5q113 0 179 78l147 -136q-129 -166 -332 -165q-227 0 -346 150.5t-119 427zM326 659h469q-2 127 -64.5 203t-161.5 76q-106 0 -172.5 -78 t-70.5 -201z" />
<glyph unicode="f" horiz-adv-x="577" d="M25 915v218h108v86q0 150 81 234.5t230 84.5q45 0 107 -10v-199q-51 10 -94 10q-63 0 -90 -30.5t-27 -89.5v-86h215v-218h-205v-915h-217v915h-108z" />
<glyph unicode="g" horiz-adv-x="1099" d="M94 584q0 262 122 415.5t308 153.5q147 0 232 -106v86h217v-961q0 -264 -114 -447.5t-316 -201.5l-41 221q248 59 248 344q-68 -98 -234 -98q-207 0 -314.5 166t-107.5 428zM322 582q0 -371 215 -371q180 0 219 127v444q-8 70 -60.5 115t-120.5 45q-253 0 -253 -360z" />
<glyph unicode="h" horiz-adv-x="1062" d="M123 0v1417l219 94v-469q20 43 92 77t162 34q164 0 264.5 -109.5t100.5 -304.5v-739h-218v717q0 109 -56 165t-144 56q-164 0 -201 -168v-770h-219z" />
<glyph unicode="i" horiz-adv-x="464" d="M111 1395q0 68 31.5 108.5t90.5 40.5q51 0 87 -42t36 -107q0 -59 -36.5 -102.5t-86.5 -43.5q-55 0 -88.5 42.5t-33.5 103.5zM123 0v1133h219v-1133h-219z" />
<glyph unicode="j" horiz-adv-x="483" d="M4 -262q141 27 141 225v1170h215v-1178q0 -100 -31.5 -189.5t-111.5 -159t-199 -83.5zM133 1395q0 66 36 107.5t85 41.5q55 0 88 -41t33 -108q0 -61 -34 -103.5t-87 -42.5q-49 0 -85 43.5t-36 102.5z" />
<glyph unicode="k" horiz-adv-x="989" d="M123 0v1417l219 94v-796l326 418h274l-324 -406l351 -727h-250l-250 539l-127 -158v-381h-219z" />
<glyph unicode="l" horiz-adv-x="462" d="M123 0v1417l217 94v-1511h-217z" />
<glyph unicode="m" horiz-adv-x="1683" d="M123 0v1133h219v-91q20 43 92 77t162 34q211 0 283 -127q94 127 309 127q182 0 287.5 -108.5t105.5 -305.5v-739h-217v717q0 109 -56.5 165t-144.5 56q-80 0 -139 -56.5t-63 -142.5v-739h-218v717q0 109 -56 165t-144 56q-164 0 -201 -168v-770h-219z" />
<glyph unicode="n" horiz-adv-x="1062" d="M123 0v1133h219v-91q20 43 92 77t162 34q164 0 264.5 -109.5t100.5 -304.5v-739h-218v717q0 109 -56 165t-144 56q-164 0 -201 -168v-770h-219z" />
<glyph unicode="o" horiz-adv-x="1122" d="M102 567.5q0 274.5 121 430t338 155.5t338 -155.5t121 -430t-121 -431t-338 -156.5t-338 156.5t-121 431zM322 567q0 -356 239.5 -356t239.5 356q0 354 -239.5 354t-239.5 -354z" />
<glyph unicode="p" horiz-adv-x="1122" d="M123 -477v1610h217v-119q84 139 246 139q188 0 311 -162t123 -401q0 -276 -119 -444.5t-307 -168.5q-186 0 -254 113v-473zM340 395q20 -74 79.5 -129t133.5 -55q250 0 250 387q0 145 -64.5 236.5t-179.5 91.5q-84 0 -143.5 -53.5t-75.5 -141.5v-336z" />
<glyph unicode="q" horiz-adv-x="1110" d="M102 580q0 246 116 409.5t308 163.5q80 0 145.5 -40t96.5 -99v119h219v-1516l-219 -94v561q-61 -104 -258 -104q-195 0 -301.5 158.5t-106.5 441.5zM309 580q0 -186 58.5 -284.5t195.5 -98.5q76 0 130.5 58t74.5 151v333q-14 63 -75.5 129t-137.5 66q-115 0 -180.5 -102 t-65.5 -252z" />
<glyph unicode="r" horiz-adv-x="706" d="M123 0v1133h219v-78q55 98 211 98q66 0 113 -29l-74 -219q-37 31 -84 31q-152 0 -166 -166v-770h-219z" />
<glyph unicode="s" horiz-adv-x="915" d="M72 840q0 158 122.5 235.5t297.5 77.5q170 0 294 -86l-65 -225q-104 90 -252 90q-166 0 -166 -96q0 -43 72 -76q23 -10 79 -30.5t102 -39t103.5 -52.5t96.5 -71t65.5 -96t26.5 -129q0 -186 -122 -274t-318 -88q-176 0 -336 94l78 200q113 -74 288 -73q190 0 191 127 q0 35 -19.5 62.5t-62.5 53t-82 44t-107.5 48t-111.5 50.5q-174 84 -174 254z" />
<glyph unicode="t" horiz-adv-x="632" d="M25 915v218h118v227l217 94v-321h203v-218h-203v-561q0 -80 31 -117.5t101 -37.5q57 0 104 26l-35 -227q-49 -18 -133 -18q-285 0 -285 352v583h-118z" />
<glyph unicode="u" horiz-adv-x="1071" d="M111 393v740h217v-707q0 -106 53 -163.5t129 -57.5q182 0 219 168v760h219v-1133h-219v90q-20 -43 -93 -76.5t-171 -33.5q-156 0 -255 110t-99 303z" />
<glyph unicode="v" horiz-adv-x="933" d="M20 1133h234l217 -828l213 828h229l-325 -1133h-248z" />
<glyph unicode="w" horiz-adv-x="1511" d="M20 1133h234l190 -789l193 789h237l189 -789l194 789h234l-303 -1133h-248l-182 780l-193 -780h-248z" />
<glyph unicode="x" horiz-adv-x="933" d="M20 1133h261l192 -379l197 379h243l-323 -562l319 -571h-254l-194 385l-195 -385h-241l321 569z" />
<glyph unicode="y" horiz-adv-x="933" d="M20 1133h232l219 -832l211 832h231l-460 -1610h-230l135 473z" />
<glyph unicode="z" horiz-adv-x="931" d="M76 0v182l485 744h-461v207h742v-177l-488 -749h494v-207h-772z" />
<glyph unicode="{" horiz-adv-x="935" d="M88 487v170q174 6 252 76t78 205v270q0 322 307 322h184v-152h-159q-143 0 -144 -159v-279q0 -272 -266 -369q266 -94 266 -366v-279q0 -160 144 -159h159v-152h-184q-307 0 -307 322v270q0 133 -78 202.5t-252 77.5z" />
<glyph unicode="|" horiz-adv-x="569" d="M199 -381v1911h172v-1911h-172z" />
<glyph unicode="}" horiz-adv-x="935" d="M27 -233h159q143 0 144 159v279q0 272 266 366q-266 96 -266 369v279q0 160 -144 159h-159v152h184q307 0 307 -322v-270q0 -135 78 -204.5t252 -76.5v-170q-174 -8 -252 -77.5t-78 -202.5v-270q0 -322 -307 -322h-184v152z" />
<glyph unicode="~" d="M47 696q115 195 309 195q74 0 141.5 -27.5t108.5 -61.5t90 -61.5t92 -27.5q92 0 179 137l135 -105q-57 -96 -141 -149t-173 -53q-84 0 -162.5 44t-146 89t-125.5 45q-92 0 -168 -123z" />
<glyph unicode="&#xa1;" horiz-adv-x="473" d="M117 1118q0 59 36.5 103.5t82.5 44.5q53 0 86.5 -43t33.5 -105q0 -63 -33.5 -106t-86.5 -43q-45 0 -82 44t-37 105zM131 -205v608l53 416h99l67 -416v-608h-219z" />
<glyph unicode="&#xa2;" horiz-adv-x="1077" d="M96 735q0 223 97.5 385t265.5 205v145h219v-139q190 -37 303 -219l-182 -117q-57 72 -121 103v-729q68 25 123 94l170 -119q-113 -170 -293 -207v-137h-219v143q-164 47 -263.5 208t-99.5 384zM309 735q0 -115 40 -207t110 -139v698q-150 -88 -150 -352z" />
<glyph unicode="&#xa3;" horiz-adv-x="1163" d="M106 0v217h27q74 0 117 57.5t43 153.5v254h-94v219h94v170q0 182 97 301t304 119q231 0 314 -166l-158 -131q-53 84 -174 84q-78 0 -124 -52t-46 -145v-180h278v-219h-278v-270q0 -137 -74 -195h615v-217h-941z" />
<glyph unicode="&#xa5;" horiz-adv-x="1251" d="M72 1470h254l303 -581l303 581h250l-430 -774h338v-164h-338v-165h338v-160h-338v-207h-248v207h-363v160h363v165h-363v164h363z" />
<glyph unicode="&#xa6;" horiz-adv-x="569" d="M199 295h172v-676h-172v676zM199 854v676h172v-676h-172z" />
<glyph unicode="&#xa7;" horiz-adv-x="1140" d="M76 -51l125 143q63 -68 162.5 -101.5t199.5 -33.5q113 0 201 39t88 123q0 55 -33 90t-106 67q-41 20 -122 50t-145.5 57t-130 66.5t-103.5 101t-38 139.5q0 86 52.5 150.5t138.5 93.5q-94 49 -142.5 110.5t-48.5 155.5q0 133 124 212t298 79q141 0 262 -46t178 -130 l-143 -115q-39 49 -130 79t-169 30q-88 0 -162 -33t-74 -88q0 -29 23.5 -53.5t45.5 -36t71 -33.5q43 -20 133 -54t150.5 -61.5t127 -70.5t101 -105.5t34.5 -144.5q0 -170 -149 -256q150 -74 149 -252q0 -174 -138 -259t-331 -85q-280 0 -499 172zM358 690q0 -47 45.5 -85 t96.5 -56.5t133 -44t112 -37.5q106 45 107 147q0 39 -16.5 72t-35 52.5t-61.5 40t-65.5 27.5t-75.5 25q-90 -6 -165 -45t-75 -96z" />
<glyph unicode="&#xa8;" horiz-adv-x="792" d="M82 1440q0 66 30.5 107.5t84.5 41.5q49 0 83.5 -44t34.5 -105q0 -59 -35.5 -103.5t-82.5 -44.5q-51 0 -83 43.5t-32 104.5zM477 1440q0 66 31 107.5t84 41.5q49 0 84 -44t35 -105q0 -59 -36 -103.5t-83 -44.5q-51 0 -83 43.5t-32 104.5z" />
<glyph unicode="&#xa9;" horiz-adv-x="1626" d="M78 735.5q0 313.5 215 534.5t518 221q305 0 520 -221t215 -534.5t-215 -534.5t-520 -221q-303 0 -518 221t-215 534.5zM201 735q0 -256 178 -433t432 -177q256 0 435 178t179 432q0 256 -180 435.5t-434 179.5t-432 -179.5t-178 -435.5zM475 743q0 188 93.5 310.5 t246.5 122.5q197 0 281 -152l-115 -74q-66 86 -166 86q-94 0 -150.5 -79.5t-56.5 -213.5q0 -125 60.5 -207.5t152.5 -82.5q96 0 160 73l106 -73q-92 -141 -272 -142q-147 0 -243.5 123t-96.5 309z" />
<glyph unicode="&#xaa;" horiz-adv-x="622" d="M53 1018q0 106 61.5 164.5t166.5 58.5q59 0 108 -27q-4 51 -30.5 70t-75.5 19q-57 0 -99 -46l-67 111q72 76 184 76q102 0 164.5 -65.5t62.5 -174.5v-405h-139v26q-51 -39 -129 -39q-88 0 -147.5 64t-59.5 168zM199 1022q0 -39 27.5 -64.5t68.5 -25.5q70 0 94 45v96 q-31 39 -84 39q-106 0 -106 -90z" />
<glyph unicode="&#xab;" horiz-adv-x="1220" d="M109 657v158l413 213v-162l-270 -127l270 -127v-157zM719 657v158l414 213v-162l-271 -127l271 -127v-157z" />
<glyph unicode="&#xac;" d="M63 633v186h1037v-819h-187v633h-850z" />
<glyph unicode="&#xad;" horiz-adv-x="473" d="M45 686v217h383v-217h-383z" />
<glyph unicode="&#xae;" horiz-adv-x="1626" d="M78 735.5q0 313.5 215 534.5t518 221q305 0 520 -221t215 -534.5t-215 -534.5t-520 -221q-303 0 -518 221t-215 534.5zM201 735q0 -256 178 -433t432 -177q256 0 435 178t179 432q0 256 -180 435.5t-434 179.5t-432 -179.5t-178 -435.5zM565 324v841h297 q127 0 195.5 -67.5t68.5 -188.5q0 -180 -159 -231l161 -354h-137l-149 331h-150v-331h-127zM692 780h180q129 0 129 125q0 133 -129 133h-180v-258z" />
<glyph unicode="&#xaf;" horiz-adv-x="724" d="M82 1399v129h561v-129h-561z" />
<glyph unicode="&#xb0;" horiz-adv-x="841" d="M117 1186q0 127 88 216t215 89q125 0 215 -90t90 -215q0 -127 -89 -216t-216 -89t-215 89t-88 216zM246 1183.5q0 -73.5 51 -123.5t123 -50q74 0 125 50t51 124q0 72 -52 124t-124 52q-74 0 -124 -51.5t-50 -125z" />
<glyph unicode="&#xb1;" d="M63 82h1037v-186h-1037v186zM63 633v186h426v424h187v-424h424v-186h-424v-426h-187v426h-426z" />
<glyph unicode="&#xb2;" horiz-adv-x="655" d="M80 676v74q0 256 188 352q6 4 25.5 13t27 12t22.5 12.5t22.5 14.5t18.5 15.5t17.5 18.5t12.5 19.5t8 24.5t2 28q0 92 -96 92q-92 0 -152 -92l-94 124q90 117 254 117q104 0 167.5 -61.5t63.5 -171.5q0 -106 -51 -163.5t-154 -113.5q-119 -61 -124 -174h329v-141h-487z " />
<glyph unicode="&#xb3;" horiz-adv-x="626" d="M66 795l120 84q39 -74 115 -74q45 0 75 31.5t30 83.5q0 125 -113 124h-60v144h60q80 0 80 92q0 37 -19.5 59.5t-56.5 22.5q-47 0 -80 -53l-119 49q14 53 70.5 98t132.5 45q86 0 143.5 -56t57.5 -157q0 -115 -66 -164q47 -25 79 -80t32 -124q0 -113 -65.5 -184.5 t-180.5 -71.5q-159 0 -235 131z" />
<glyph unicode="&#xb4;" horiz-adv-x="569" d="M82 1331l307 293l98 -129l-337 -256z" />
<glyph unicode="&#xb5;" horiz-adv-x="1085" d="M121 -477v1610h217v-707q0 -106 53 -163.5t129 -57.5q182 0 219 168v760h219v-1133h-219v90q-20 -43 -93 -76.5t-171 -33.5q-76 0 -137 24v-387z" />
<glyph unicode="&#xb6;" horiz-adv-x="1458" d="M68 1024q0 217 125.5 331.5t334.5 114.5h789v-1804h-219v1585h-236v-1585h-219v914h-115q-213 0 -336.5 116.5t-123.5 327.5zM285 1018q0 -221 225 -221h133v454h-133q-225 0 -225 -233z" />
<glyph unicode="&#xb7;" horiz-adv-x="440" d="M102 702q0 66 31 108t84 42q49 0 84 -44t35 -106q0 -59 -36 -103t-83 -44q-51 0 -83 43t-32 104z" />
<glyph unicode="&#xb8;" horiz-adv-x="401" d="M82 -193q0 61 32.5 96.5t86.5 35.5q47 0 82.5 -36t35.5 -96q0 -260 -198 -284v33q43 10 60.5 18t30.5 32.5t17 69.5h-34q-53 0 -83 36t-30 95z" />
<glyph unicode="&#xb9;" horiz-adv-x="360" d="M51 1288v131q88 4 99 72h116v-815h-139v612h-76z" />
<glyph unicode="&#xba;" horiz-adv-x="677" d="M78 1116.5q0 153.5 67.5 240.5t190.5 87t191.5 -87t68.5 -240.5t-68.5 -242t-191.5 -88.5t-190.5 88.5t-67.5 242zM219 1116q0 -178 117 -178t117 178q0 180 -117 180t-117 -180z" />
<glyph unicode="&#xbb;" horiz-adv-x="1220" d="M109 455v163l272 127l-272 125v158l413 -203v-157zM719 455v163l272 127l-272 125v158l414 -203v-157z" />
<glyph unicode="&#xbc;" horiz-adv-x="1656" d="M102 0l1198 1470h175l-1205 -1470h-168zM231 1288v131q88 4 99 72h116v-815h-139v612h-76zM1004 184v115l323 496h143v-471h84v-140h-84v-204h-139v204h-327zM1174 324h157v243z" />
<glyph unicode="&#xbd;" horiz-adv-x="1662" d="M102 0l1198 1470h175l-1205 -1470h-168zM231 1288v131q88 4 99 72h116v-815h-139v612h-76zM1073 -20v73q0 256 189 353q6 4 25.5 13t26.5 12t22.5 12.5t22.5 14.5t18.5 15t17.5 18.5t12 19.5t8 24.5t2 27.5q0 92 -96 92q-92 0 -152 -92l-94 125q90 117 254 117 q104 0 168 -61.5t64 -172.5q0 -106 -51.5 -163.5t-153.5 -112.5q-119 -61 -125 -174h330v-141h-488z" />
<glyph unicode="&#xbe;" horiz-adv-x="1759" d="M102 795l121 84q39 -74 115 -74q45 0 74.5 31.5t29.5 83.5q0 125 -112 124h-60v144h60q80 0 80 92q0 37 -19.5 59.5t-56.5 22.5q-47 0 -80 -53l-119 49q14 53 70.5 98t132.5 45q86 0 143.5 -56t57.5 -157q0 -115 -66 -164q47 -25 79 -80t32 -124q0 -113 -65.5 -184.5 t-180.5 -71.5q-160 0 -236 131zM205 0l1198 1470h174l-1204 -1470h-168zM1106 184v115l324 496h143v-471h84v-140h-84v-204h-139v204h-328zM1276 324h158v243z" />
<glyph unicode="&#xbf;" horiz-adv-x="929" d="M78 160q0 84 36 159.5t74.5 118.5t110.5 111q37 35 58.5 63.5t31.5 73.5t11 67.5t6 96.5h221v-21q0 -266 -170 -423q-94 -88 -121 -129t-27 -117t41 -118t113 -42q184 0 285 125l110 -182q-127 -168 -399 -168q-174 0 -277.5 101.5t-103.5 283.5zM393 1118q0 61 34 104.5 t87 43.5q51 0 88 -44t37 -104q0 -61 -37 -105t-88 -44q-53 0 -87 43t-34 106z" />
<glyph unicode="&#xc0;" horiz-adv-x="1196" d="M12 0l434 1470h306l432 -1470h-234l-82 283h-540l-78 -283h-238zM293 1833l98 129l307 -293l-67 -92zM389 500h418l-211 747z" />
<glyph unicode="&#xc1;" horiz-adv-x="1196" d="M12 0l434 1470h306l432 -1470h-234l-82 283h-540l-78 -283h-238zM389 500h418l-211 747zM498 1669l307 293l98 -129l-338 -256z" />
<glyph unicode="&#xc2;" horiz-adv-x="1196" d="M12 0l434 1470h306l432 -1470h-234l-82 283h-540l-78 -283h-238zM289 1645l309 317l309 -317l-67 -80l-242 202l-242 -202zM389 500h418l-211 747z" />
<glyph unicode="&#xc3;" horiz-adv-x="1196" d="M12 0l434 1470h306l432 -1470h-234l-82 283h-540l-78 -283h-238zM156 1743q27 98 100.5 158.5t149.5 60.5q63 0 121.5 -29.5t92 -64.5t74.5 -64.5t78 -29.5q68 0 105.5 44t60.5 132l100 -88q-27 -104 -98.5 -165t-159.5 -61q-74 0 -140.5 46.5t-121.5 92.5t-102 46 q-106 0 -160 -166zM389 500h418l-211 747z" />
<glyph unicode="&#xc4;" horiz-adv-x="1196" d="M12 0l434 1470h306l432 -1470h-234l-82 283h-540l-78 -283h-238zM283 1778q0 66 30.5 107.5t83.5 41.5q49 0 84 -44t35 -105q0 -59 -36 -103.5t-83 -44.5q-51 0 -82.5 43.5t-31.5 104.5zM389 500h418l-211 747zM678 1778q0 66 30.5 107.5t84.5 41.5q49 0 83.5 -44 t34.5 -105q0 -59 -35.5 -103.5t-82.5 -44.5q-51 0 -83 43.5t-32 104.5z" />
<glyph unicode="&#xc5;" horiz-adv-x="1196" d="M12 0l434 1470h306l432 -1470h-234l-82 283h-540l-78 -283h-238zM377 1741q0 90 64.5 155.5t154.5 65.5t156.5 -65.5t66.5 -155.5t-66.5 -155.5t-156.5 -65.5t-154.5 65.5t-64.5 155.5zM389 500h418l-211 747zM494 1741q0 -45 28.5 -75t73.5 -30q43 0 73.5 30t30.5 75 q0 41 -30.5 70.5t-73.5 29.5t-72.5 -29.5t-29.5 -70.5z" />
<glyph unicode="&#xc6;" horiz-adv-x="1673" d="M12 0l434 1470h1113v-219h-639l41 -389h387v-217h-365l45 -428h531v-217h-730l-30 283h-473l-76 -283h-238zM389 500h387l-78 751h-100z" />
<glyph unicode="&#xc7;" horiz-adv-x="1282" d="M102 735.5q0 327.5 162 541.5t432 214q338 0 492 -266l-184 -123q-51 86 -121 120.5t-187 34.5q-170 0 -270 -142t-100 -380q0 -223 107.5 -371.5t271.5 -148.5q170 0 288 133l181 -121q-162 -248 -478 -247q-260 0 -427 214t-167 541.5zM582 -193q0 61 32.5 96.5 t85.5 35.5q47 0 83 -36t36 -96q0 -260 -198 -284v33q43 10 60 18t30.5 32.5t17.5 69.5h-35q-53 0 -82.5 36t-29.5 95z" />
<glyph unicode="&#xc8;" horiz-adv-x="1021" d="M123 0v1470h784v-219h-565v-389h354v-217h-354v-428h565v-217h-784zM225 1833l99 129l307 -293l-68 -92z" />
<glyph unicode="&#xc9;" horiz-adv-x="1021" d="M123 0v1470h784v-219h-565v-389h354v-217h-354v-428h565v-217h-784zM430 1669l307 293l99 -129l-338 -256z" />
<glyph unicode="&#xca;" horiz-adv-x="1021" d="M123 0v1470h784v-219h-565v-389h354v-217h-354v-428h565v-217h-784zM221 1645l309 317l310 -317l-68 -80l-242 202l-241 -202z" />
<glyph unicode="&#xcb;" horiz-adv-x="1021" d="M123 0v1470h784v-219h-565v-389h354v-217h-354v-428h565v-217h-784zM217 1778q0 66 31 107.5t84 41.5q49 0 84 -44t35 -105q0 -59 -36 -103.5t-83 -44.5q-51 0 -83 43.5t-32 104.5zM612 1778q0 66 31 107.5t84 41.5q49 0 84 -44t35 -105q0 -59 -36 -103.5t-83 -44.5 q-51 0 -83 43.5t-32 104.5z" />
<glyph unicode="&#xcc;" horiz-adv-x="481" d="M-63 1833l98 129l307 -293l-68 -92zM131 0v1470h219v-1470h-219z" />
<glyph unicode="&#xcd;" horiz-adv-x="481" d="M131 0v1470h219v-1470h-219zM139 1669l307 293l99 -129l-338 -256z" />
<glyph unicode="&#xce;" horiz-adv-x="481" d="M-68 1645l310 317l309 -317l-68 -80l-241 202l-242 -202zM131 0v1470h219v-1470h-219z" />
<glyph unicode="&#xcf;" horiz-adv-x="481" d="M-74 1778q0 66 31 107.5t84 41.5q49 0 84 -44t35 -105q0 -59 -36 -103.5t-83 -44.5q-51 0 -83 43.5t-32 104.5zM131 0v1470h219v-1470h-219zM322 1778q0 66 30.5 107.5t83.5 41.5q49 0 84 -44t35 -105q0 -59 -36 -103.5t-83 -44.5q-51 0 -82.5 43.5t-31.5 104.5z" />
<glyph unicode="&#xd0;" horiz-adv-x="1310" d="M37 645v217h86v608h412q305 0 496.5 -204.5t191.5 -524.5q0 -340 -197 -540.5t-504 -200.5h-399v645h-86zM342 221h147q233 0 371.5 143.5t138.5 374.5q0 236 -133 374t-377 138h-147v-389h305v-217h-305v-424z" />
<glyph unicode="&#xd1;" horiz-adv-x="1267" d="M123 0v1470h270l533 -1048v1048h219v-1470h-250l-555 1094v-1094h-217zM193 1743q27 98 100.5 158.5t148.5 60.5q63 0 122 -29.5t92.5 -64.5t74.5 -64.5t78 -29.5q68 0 105.5 44t60.5 132l100 -88q-27 -104 -98.5 -165t-159.5 -61q-74 0 -140.5 46.5t-121.5 92.5t-102 46 q-106 0 -160 -166z" />
<glyph unicode="&#xd2;" horiz-adv-x="1384" d="M102 735q0 350 162 553t428 203t428 -203t162 -553t-162 -552.5t-428 -202.5t-428 202.5t-162 552.5zM317 735q0 -256 104.5 -391t270.5 -135t270.5 135t104.5 391q0 260 -99.5 394.5t-275.5 134.5t-275.5 -134.5t-99.5 -394.5zM387 1833l98 129l308 -293l-68 -92z" />
<glyph unicode="&#xd3;" horiz-adv-x="1384" d="M102 735q0 350 162 553t428 203t428 -203t162 -553t-162 -552.5t-428 -202.5t-428 202.5t-162 552.5zM317 735q0 -256 104.5 -391t270.5 -135t270.5 135t104.5 391q0 260 -99.5 394.5t-275.5 134.5t-275.5 -134.5t-99.5 -394.5zM592 1669l307 293l98 -129l-338 -256z" />
<glyph unicode="&#xd4;" horiz-adv-x="1384" d="M102 735q0 350 162 553t428 203t428 -203t162 -553t-162 -552.5t-428 -202.5t-428 202.5t-162 552.5zM317 735q0 -256 104.5 -391t270.5 -135t270.5 135t104.5 391q0 260 -99.5 394.5t-275.5 134.5t-275.5 -134.5t-99.5 -394.5zM383 1645l309 317l309 -317l-67 -80 l-242 202l-241 -202z" />
<glyph unicode="&#xd5;" horiz-adv-x="1384" d="M102 735q0 350 162 553t428 203t428 -203t162 -553t-162 -552.5t-428 -202.5t-428 202.5t-162 552.5zM250 1743q27 98 100.5 158.5t149.5 60.5q63 0 121.5 -29.5t92.5 -64.5t74.5 -64.5t77.5 -29.5q68 0 106 44t60 132l101 -88q-27 -104 -98.5 -165t-160.5 -61 q-74 0 -140 46.5t-121.5 92.5t-102.5 46q-106 0 -160 -166zM317 735q0 -256 104.5 -391t270.5 -135t270.5 135t104.5 391q0 260 -99.5 394.5t-275.5 134.5t-275.5 -134.5t-99.5 -394.5z" />
<glyph unicode="&#xd6;" horiz-adv-x="1384" d="M102 735q0 350 162 553t428 203t428 -203t162 -553t-162 -552.5t-428 -202.5t-428 202.5t-162 552.5zM317 735q0 -256 104.5 -391t270.5 -135t270.5 135t104.5 391q0 260 -99.5 394.5t-275.5 134.5t-275.5 -134.5t-99.5 -394.5zM377 1778q0 66 30.5 107.5t84.5 41.5 q49 0 83.5 -44t34.5 -105q0 -59 -35.5 -103.5t-82.5 -44.5q-51 0 -83 43.5t-32 104.5zM772 1778q0 66 31 107.5t84 41.5q49 0 84 -44t35 -105q0 -59 -36 -103.5t-83 -44.5q-51 0 -83 43.5t-32 104.5z" />
<glyph unicode="&#xd7;" d="M150 424l301 301l-301 301l133 131l301 -301l299 301l131 -133l-299 -299l299 -299l-131 -133l-299 301l-301 -301z" />
<glyph unicode="&#xd8;" horiz-adv-x="1382" d="M102 735q0 350 162 553t428 203q145 0 264 -66l74 146h178l-125 -242q199 -205 199 -594q0 -350 -162 -552.5t-428 -202.5q-150 0 -268 65l-76 -147h-174l125 243q-197 207 -197 594zM317 735q0 -236 93 -375l444 867q-72 37 -162 37q-176 0 -275.5 -134.5t-99.5 -394.5z M528 250q70 -41 164 -41q166 0 270.5 135t104.5 391q0 246 -92 383z" />
<glyph unicode="&#xd9;" horiz-adv-x="1230" d="M115 528v942h217v-942q0 -176 74.5 -253.5t218.5 -77.5q135 0 204.5 76.5t69.5 254.5v942h217v-942q0 -252 -128 -400t-363 -148q-238 0 -374 148t-136 400zM309 1833l99 129l307 -293l-68 -92z" />
<glyph unicode="&#xda;" horiz-adv-x="1230" d="M115 528v942h217v-942q0 -176 74.5 -253.5t218.5 -77.5q135 0 204.5 76.5t69.5 254.5v942h217v-942q0 -252 -128 -400t-363 -148q-238 0 -374 148t-136 400zM514 1669l307 293l99 -129l-338 -256z" />
<glyph unicode="&#xdb;" horiz-adv-x="1230" d="M115 528v942h217v-942q0 -176 74.5 -253.5t218.5 -77.5q135 0 204.5 76.5t69.5 254.5v942h217v-942q0 -252 -128 -400t-363 -148q-238 0 -374 148t-136 400zM305 1645l309 317l310 -317l-68 -80l-242 202l-241 -202z" />
<glyph unicode="&#xdc;" horiz-adv-x="1230" d="M115 528v942h217v-942q0 -176 74.5 -253.5t218.5 -77.5q135 0 204.5 76.5t69.5 254.5v942h217v-942q0 -252 -128 -400t-363 -148q-238 0 -374 148t-136 400zM301 1778q0 66 30.5 107.5t84.5 41.5q49 0 84 -44t35 -105q0 -59 -36 -103.5t-83 -44.5q-51 0 -83 43.5 t-32 104.5zM696 1778q0 66 31 107.5t84 41.5q49 0 84 -44t35 -105q0 -59 -36 -103.5t-83 -44.5q-51 0 -83 43.5t-32 104.5z" />
<glyph unicode="&#xdd;" horiz-adv-x="1126" d="M8 1470h248l309 -690l309 690h244l-430 -909v-561h-248v557zM463 1669l307 293l98 -129l-338 -256z" />
<glyph unicode="&#xde;" horiz-adv-x="1079" d="M123 0v1470h219v-233h162q242 0 388 -120t146 -339q0 -236 -148.5 -370t-393.5 -134h-154v-274h-219zM342 1020v-528h145q182 0 251 66.5t69 213.5q0 135 -87 191.5t-247 56.5h-131z" />
<glyph unicode="&#xdf;" horiz-adv-x="1169" d="M119 1120q0 190 111.5 304t310.5 114q217 0 323.5 -100.5t106.5 -284.5q0 -256 -168 -326q125 -31 198.5 -129t73.5 -233q0 -217 -100.5 -351t-312.5 -134q-92 0 -168 24.5t-101 54.5l137 185q37 -47 134 -47q94 0 144 66.5t50 180.5q0 256 -315 256v199q117 0 164 59.5 t47 167.5q0 92 -50.5 142.5t-144.5 50.5q-119 0 -171 -51t-52 -166v-1102h-217v1120z" />
<glyph unicode="&#xe0;" horiz-adv-x="1019" d="M61 385q0 186 109 289.5t289 103.5q145 0 221 -80q0 135 -53.5 185.5t-163.5 50.5q-106 0 -180 -70l-101 168q115 121 314 121q180 0 291.5 -115.5t111.5 -306.5v-731h-217v82q-84 -102 -262 -102q-154 0 -256.5 111.5t-102.5 293.5zM205 1495l98 129l307 -293l-67 -92z M283 389q0 -80 59 -133t141 -53q55 0 115.5 29.5t81.5 74.5v187q-23 35 -73 60.5t-99 25.5q-225 -1 -225 -191z" />
<glyph unicode="&#xe1;" horiz-adv-x="1019" d="M61 385q0 186 109 289.5t289 103.5q145 0 221 -80q0 135 -53.5 185.5t-163.5 50.5q-106 0 -180 -70l-101 168q115 121 314 121q180 0 291.5 -115.5t111.5 -306.5v-731h-217v82q-84 -102 -262 -102q-154 0 -256.5 111.5t-102.5 293.5zM283 389q0 -80 59 -133t141 -53 q55 0 115.5 29.5t81.5 74.5v187q-23 35 -73 60.5t-99 25.5q-225 -1 -225 -191zM410 1331l307 293l98 -129l-338 -256z" />
<glyph unicode="&#xe2;" horiz-adv-x="1019" d="M61 385q0 186 109 289.5t289 103.5q145 0 221 -80q0 135 -53.5 185.5t-163.5 50.5q-106 0 -180 -70l-101 168q115 121 314 121q180 0 291.5 -115.5t111.5 -306.5v-731h-217v82q-84 -102 -262 -102q-154 0 -256.5 111.5t-102.5 293.5zM201 1307l309 317l309 -317l-67 -80 l-242 203l-242 -203zM283 389q0 -80 59 -133t141 -53q55 0 115.5 29.5t81.5 74.5v187q-23 35 -73 60.5t-99 25.5q-225 -1 -225 -191z" />
<glyph unicode="&#xe3;" horiz-adv-x="1019" d="M61 385q0 186 109 289.5t289 103.5q145 0 221 -80q0 135 -53.5 185.5t-163.5 50.5q-106 0 -180 -70l-101 168q115 121 314 121q180 0 291.5 -115.5t111.5 -306.5v-731h-217v82q-84 -102 -262 -102q-154 0 -256.5 111.5t-102.5 293.5zM70 1405q27 98 100.5 158.5 t148.5 60.5q63 0 122 -29.5t92.5 -64.5t74.5 -64.5t78 -29.5q68 0 105.5 44t60.5 132l100 -88q-27 -104 -98.5 -165t-159.5 -61q-74 0 -140.5 46.5t-121.5 92.5t-102 46q-106 0 -160 -166zM283 389q0 -80 59 -133t141 -53q55 0 115.5 29.5t81.5 74.5v187q-23 35 -73 60.5 t-99 25.5q-225 -1 -225 -191z" />
<glyph unicode="&#xe4;" horiz-adv-x="1019" d="M61 385q0 186 109 289.5t289 103.5q145 0 221 -80q0 135 -53.5 185.5t-163.5 50.5q-106 0 -180 -70l-101 168q115 121 314 121q180 0 291.5 -115.5t111.5 -306.5v-731h-217v82q-84 -102 -262 -102q-154 0 -256.5 111.5t-102.5 293.5zM195 1440q0 66 30.5 107.5t83.5 41.5 q49 0 84 -44t35 -105q0 -59 -36 -103.5t-83 -44.5q-51 0 -82.5 43.5t-31.5 104.5zM283 389q0 -80 59 -133t141 -53q55 0 115.5 29.5t81.5 74.5v187q-23 35 -73 60.5t-99 25.5q-225 -1 -225 -191zM590 1440q0 66 30.5 107.5t84.5 41.5q49 0 83.5 -44t34.5 -105 q0 -59 -35.5 -103.5t-82.5 -44.5q-51 0 -83 43.5t-32 104.5z" />
<glyph unicode="&#xe5;" horiz-adv-x="1019" d="M61 385q0 186 109 289.5t289 103.5q145 0 221 -80q0 135 -53.5 185.5t-163.5 50.5q-106 0 -180 -70l-101 168q115 121 314 121q180 0 291.5 -115.5t111.5 -306.5v-731h-217v82q-84 -102 -262 -102q-154 0 -256.5 111.5t-102.5 293.5zM283 389q0 -80 59 -133t141 -53 q55 0 115.5 29.5t81.5 74.5v187q-23 35 -73 60.5t-99 25.5q-225 -1 -225 -191zM289 1403q0 90 64.5 155.5t154.5 65.5t156.5 -65.5t66.5 -155.5t-66.5 -155.5t-156.5 -65.5t-154.5 65.5t-64.5 155.5zM406 1403q0 -45 28.5 -75t73.5 -30q43 0 73.5 30t30.5 75 q0 41 -30.5 70.5t-73.5 29.5t-72.5 -29.5t-29.5 -70.5z" />
<glyph unicode="&#xe6;" horiz-adv-x="1677" d="M61 385q0 186 109 289.5t289 103.5q145 0 221 -80q0 135 -53.5 185.5t-163.5 50.5q-106 0 -180 -70l-101 168q115 121 314 121q205 0 319 -149q125 150 334 149q205 0 324.5 -143.5t119.5 -425.5q0 -90 -6 -140h-684q0 -104 72 -172.5t176 -68.5q113 0 178 78l148 -136 q-129 -166 -332 -165q-256 0 -373 186q-125 -186 -352 -186q-154 0 -256.5 111.5t-102.5 293.5zM283 389q0 -80 59 -133t141 -53q133 0 219 141q-18 82 -20 152q-72 84 -174 84q-225 -1 -225 -191zM903 659h469q-2 127 -64.5 203t-160.5 76q-106 0 -173 -78t-71 -201z" />
<glyph unicode="&#xe7;" horiz-adv-x="987" d="M102 575q0 252 132.5 415t334.5 163q117 0 202 -45t130 -115l-168 -135q-59 72 -164 72q-111 0 -177 -98.5t-66 -258.5q0 -371 254 -370q86 0 153 78l180 -134q-135 -168 -344 -167q-217 0 -342 162.5t-125 432.5zM420 -193q0 61 32.5 96.5t86.5 35.5q47 0 82.5 -36 t35.5 -96q0 -260 -198 -284v33q43 10 60.5 18t30.5 32.5t17 69.5h-35q-53 0 -82.5 36t-29.5 95z" />
<glyph unicode="&#xe8;" horiz-adv-x="1099" d="M102 557.5q0 276.5 126 436t343 159.5q205 0 325 -143.5t120 -425.5q0 -90 -6 -140h-684q0 -104 71.5 -172.5t175.5 -68.5q113 0 179 78l147 -136q-129 -166 -332 -165q-227 0 -346 150.5t-119 427zM264 1495l98 129l308 -293l-68 -92zM326 659h469q-2 127 -64.5 203 t-161.5 76q-106 0 -172.5 -78t-70.5 -201z" />
<glyph unicode="&#xe9;" horiz-adv-x="1099" d="M102 557.5q0 276.5 126 436t343 159.5q205 0 325 -143.5t120 -425.5q0 -90 -6 -140h-684q0 -104 71.5 -172.5t175.5 -68.5q113 0 179 78l147 -136q-129 -166 -332 -165q-227 0 -346 150.5t-119 427zM326 659h469q-2 127 -64.5 203t-161.5 76q-106 0 -172.5 -78 t-70.5 -201zM469 1331l307 293l98 -129l-337 -256z" />
<glyph unicode="&#xea;" horiz-adv-x="1099" d="M102 557.5q0 276.5 126 436t343 159.5q205 0 325 -143.5t120 -425.5q0 -90 -6 -140h-684q0 -104 71.5 -172.5t175.5 -68.5q113 0 179 78l147 -136q-129 -166 -332 -165q-227 0 -346 150.5t-119 427zM260 1307l309 317l310 -317l-68 -80l-242 203l-241 -203zM326 659h469 q-2 127 -64.5 203t-161.5 76q-106 0 -172.5 -78t-70.5 -201z" />
<glyph unicode="&#xeb;" horiz-adv-x="1099" d="M102 557.5q0 276.5 126 436t343 159.5q205 0 325 -143.5t120 -425.5q0 -90 -6 -140h-684q0 -104 71.5 -172.5t175.5 -68.5q113 0 179 78l147 -136q-129 -166 -332 -165q-227 0 -346 150.5t-119 427zM256 1440q0 66 30.5 107.5t84.5 41.5q49 0 83.5 -44t34.5 -105 q0 -59 -35.5 -103.5t-82.5 -44.5q-51 0 -83 43.5t-32 104.5zM326 659h469q-2 127 -64.5 203t-161.5 76q-106 0 -172.5 -78t-70.5 -201zM651 1440q0 66 31 107.5t84 41.5q49 0 84 -44t35 -105q0 -59 -36 -103.5t-83 -44.5q-51 0 -83 43.5t-32 104.5z" />
<glyph unicode="&#xec;" horiz-adv-x="464" d="M-72 1495l99 129l307 -293l-68 -92zM123 0v1133h219v-1133h-219z" />
<glyph unicode="&#xed;" horiz-adv-x="464" d="M123 0v1133h219v-1133h-219zM131 1331l307 293l99 -129l-338 -256z" />
<glyph unicode="&#xee;" horiz-adv-x="514" d="M-51 1307l309 317l309 -317l-67 -80l-242 203l-242 -203zM147 0v1133h220v-1133h-220z" />
<glyph unicode="&#xef;" horiz-adv-x="579" d="M-25 1440q0 66 31 107.5t84 41.5q49 0 84 -44t35 -105q0 -59 -36 -103.5t-83 -44.5q-51 0 -83 43.5t-32 104.5zM180 0v1133h219v-1133h-219zM371 1440q0 66 30.5 107.5t83.5 41.5q49 0 84 -44t35 -105q0 -59 -36 -103.5t-83 -44.5q-51 0 -82.5 43.5t-31.5 104.5z" />
<glyph unicode="&#xf0;" horiz-adv-x="1079" d="M102 481q0 207 108.5 338t276.5 131q72 0 152 -46t121 -113q-57 260 -180 366l-211 -182l-72 82l190 164q-63 31 -157 51l35 205q158 -6 290 -113l170 147l70 -81l-162 -140q115 -131 179.5 -324.5t64.5 -408.5q0 -270 -113.5 -423.5t-310.5 -153.5q-209 0 -330 127.5 t-121 373.5zM299 465q0 -127 66.5 -198.5t175.5 -71.5q104 0 162.5 71.5t58.5 200.5t-63.5 202.5t-170.5 73.5q-102 0 -165.5 -75.5t-63.5 -202.5z" />
<glyph unicode="&#xf1;" horiz-adv-x="1062" d="M90 1405q27 98 100.5 158.5t149.5 60.5q63 0 121.5 -29.5t92.5 -64.5t75 -64.5t78 -29.5q68 0 105.5 44t59.5 132l101 -88q-27 -104 -98.5 -165t-159.5 -61q-74 0 -140.5 46.5t-122 92.5t-102.5 46q-106 0 -160 -166zM123 0v1133h219v-91q20 43 92 77t162 34 q164 0 264.5 -109.5t100.5 -304.5v-739h-218v717q0 109 -56 165t-144 56q-164 0 -201 -168v-770h-219z" />
<glyph unicode="&#xf2;" horiz-adv-x="1122" d="M102 567.5q0 274.5 121 430t338 155.5t338 -155.5t121 -430t-121 -431t-338 -156.5t-338 156.5t-121 431zM256 1495l98 129l308 -293l-68 -92zM322 567q0 -356 239.5 -356t239.5 356q0 354 -239.5 354t-239.5 -354z" />
<glyph unicode="&#xf3;" horiz-adv-x="1122" d="M102 567.5q0 274.5 121 430t338 155.5t338 -155.5t121 -430t-121 -431t-338 -156.5t-338 156.5t-121 431zM322 567q0 -356 239.5 -356t239.5 356q0 354 -239.5 354t-239.5 -354zM461 1331l307 293l98 -129l-338 -256z" />
<glyph unicode="&#xf4;" horiz-adv-x="1122" d="M102 567.5q0 274.5 121 430t338 155.5t338 -155.5t121 -430t-121 -431t-338 -156.5t-338 156.5t-121 431zM252 1307l309 317l309 -317l-67 -80l-242 203l-242 -203zM322 567q0 -356 239.5 -356t239.5 356q0 354 -239.5 354t-239.5 -354z" />
<glyph unicode="&#xf5;" horiz-adv-x="1122" d="M102 567.5q0 274.5 121 430t338 155.5t338 -155.5t121 -430t-121 -431t-338 -156.5t-338 156.5t-121 431zM119 1405q27 98 100.5 158.5t149.5 60.5q63 0 121.5 -29.5t92 -64.5t74.5 -64.5t78 -29.5q68 0 106 44t60 132l100 -88q-27 -104 -98.5 -165t-159.5 -61 q-74 0 -140 46.5t-121.5 92.5t-102.5 46q-106 0 -160 -166zM322 567q0 -356 239.5 -356t239.5 356q0 354 -239.5 354t-239.5 -354z" />
<glyph unicode="&#xf6;" horiz-adv-x="1122" d="M102 567.5q0 274.5 121 430t338 155.5t338 -155.5t121 -430t-121 -431t-338 -156.5t-338 156.5t-121 431zM246 1440q0 66 30.5 107.5t83.5 41.5q49 0 84 -44t35 -105q0 -59 -35.5 -103.5t-83.5 -44.5q-51 0 -82.5 43.5t-31.5 104.5zM322 567q0 -356 239.5 -356t239.5 356 q0 354 -239.5 354t-239.5 -354zM641 1440q0 66 30.5 107.5t84.5 41.5q49 0 83.5 -44t34.5 -105q0 -59 -35.5 -103.5t-82.5 -44.5q-51 0 -83 43.5t-32 104.5z" />
<glyph unicode="&#xf7;" d="M63 633v186h1037v-186h-1037zM465 238q0 66 30.5 107.5t84.5 41.5q49 0 83.5 -44t34.5 -105q0 -59 -35.5 -103.5t-82.5 -44.5q-51 0 -83 43.5t-32 104.5zM465 1212q0 66 30.5 108t84.5 42q49 0 83.5 -44t34.5 -106q0 -59 -35.5 -103t-82.5 -44q-51 0 -83 43t-32 104z" />
<glyph unicode="&#xf8;" horiz-adv-x="1122" d="M102 567q0 274 121 430t338 156q115 0 205 -47l68 129h149l-109 -211q145 -156 146 -457q0 -274 -121 -430.5t-338 -156.5q-106 0 -203 43l-63 -125h-150l107 206q-150 154 -150 463zM322 567q0 -156 43 -241l297 575q-41 20 -101 21q-239 -1 -239 -355zM465 229 q43 -18 96 -18q240 0 240 356q0 145 -41 234z" />
<glyph unicode="&#xf9;" horiz-adv-x="1071" d="M111 393v740h217v-707q0 -106 53 -163.5t129 -57.5q182 0 219 168v760h219v-1133h-219v90q-20 -43 -93 -76.5t-171 -33.5q-156 0 -255 110t-99 303zM229 1495l99 129l307 -293l-68 -92z" />
<glyph unicode="&#xfa;" horiz-adv-x="1071" d="M111 393v740h217v-707q0 -106 53 -163.5t129 -57.5q182 0 219 168v760h219v-1133h-219v90q-20 -43 -93 -76.5t-171 -33.5q-156 0 -255 110t-99 303zM434 1331l307 293l99 -129l-338 -256z" />
<glyph unicode="&#xfb;" horiz-adv-x="1071" d="M111 393v740h217v-707q0 -106 53 -163.5t129 -57.5q182 0 219 168v760h219v-1133h-219v90q-20 -43 -93 -76.5t-171 -33.5q-156 0 -255 110t-99 303zM225 1307l310 317l309 -317l-68 -80l-241 203l-242 -203z" />
<glyph unicode="&#xfc;" horiz-adv-x="1071" d="M111 393v740h217v-707q0 -106 53 -163.5t129 -57.5q182 0 219 168v760h219v-1133h-219v90q-20 -43 -93 -76.5t-171 -33.5q-156 0 -255 110t-99 303zM221 1440q0 66 31 107.5t84 41.5q49 0 84 -44t35 -105q0 -59 -36 -103.5t-83 -44.5q-51 0 -83 43.5t-32 104.5zM616 1440 q0 66 31 107.5t84 41.5q49 0 84 -44t35 -105q0 -59 -36 -103.5t-83 -44.5q-51 0 -83 43.5t-32 104.5z" />
<glyph unicode="&#xfd;" horiz-adv-x="933" d="M20 1133h232l219 -832l211 832h231l-460 -1610h-230l135 473zM367 1331l307 293l98 -129l-338 -256z" />
<glyph unicode="&#xfe;" horiz-adv-x="1122" d="M123 -477v1894l219 94v-462q61 104 258 104q137 0 235.5 -89t141.5 -213t43 -261q0 -276 -119 -444.5t-307 -168.5q-186 0 -254 113v-473zM340 395q20 -74 79.5 -129t133.5 -55q250 0 250 387q0 141 -61.5 239.5t-194.5 98.5q-78 0 -132.5 -58.5t-74.5 -150.5v-332z" />
<glyph unicode="&#xff;" horiz-adv-x="933" d="M20 1133h232l219 -832l211 832h231l-460 -1610h-230l135 473zM152 1440q0 66 30.5 107.5t83.5 41.5q49 0 84 -44t35 -105q0 -59 -36 -103.5t-83 -44.5q-51 0 -82.5 43.5t-31.5 104.5zM547 1440q0 66 30.5 107.5t84.5 41.5q49 0 83.5 -44t34.5 -105q0 -59 -35.5 -103.5 t-82.5 -44.5q-51 0 -83 43.5t-32 104.5z" />
<glyph unicode="&#x152;" horiz-adv-x="1927" d="M102 735q0 350 162 553t428 203q207 0 336 -129v108h784v-219h-565v-389h355v-217h-355v-428h565v-217h-784v109q-129 -129 -336 -129q-266 0 -428 202.5t-162 552.5zM317 735q0 -256 104.5 -391t270.5 -135q119 0 206 69.5t130 206.5v508q-80 270 -336 271 q-176 0 -275.5 -134.5t-99.5 -394.5z" />
<glyph unicode="&#x153;" horiz-adv-x="1789" d="M102 567.5q0 274.5 121 430t338 155.5q238 0 350 -197q113 197 351 197q205 0 324.5 -143.5t119.5 -425.5q0 -90 -6 -140h-684q0 -104 71.5 -172.5t176.5 -68.5q113 0 178 78l147 -136q-129 -166 -332 -165q-248 0 -352 186q-111 -186 -344 -186q-217 0 -338 156.5 t-121 431zM322 567q0 -356 239.5 -356t239.5 356q0 354 -239.5 354t-239.5 -354zM1016 659h469q-2 127 -64.5 203t-160.5 76q-106 0 -173 -78t-71 -201z" />
<glyph unicode="&#x178;" horiz-adv-x="1126" d="M8 1470h248l309 -690l309 690h244l-430 -909v-561h-248v557zM248 1778q0 66 30.5 107.5t83.5 41.5q49 0 84 -44t35 -105q0 -59 -35.5 -103.5t-83.5 -44.5q-51 0 -82.5 43.5t-31.5 104.5zM643 1778q0 66 31 107.5t84 41.5q49 0 84 -44t35 -105q0 -59 -36 -103.5t-83 -44.5 q-51 0 -83 43.5t-32 104.5z" />
<glyph unicode="&#x2c6;" horiz-adv-x="782" d="M82 1307l309 317l309 -317l-67 -80l-242 203l-241 -203z" />
<glyph unicode="&#x2dc;" horiz-adv-x="1046" d="M82 1405q27 98 100.5 158.5t149.5 60.5q63 0 121.5 -29.5t92.5 -64.5t75 -64.5t77 -29.5q68 0 106 44t60 132l101 -88q-27 -104 -98.5 -165t-159.5 -61q-74 0 -140.5 46.5t-122 92.5t-102.5 46q-106 0 -160 -166z" />
<glyph unicode="&#x3bc;" horiz-adv-x="1085" d="M121 -477v1610h217v-707q0 -106 53 -163.5t129 -57.5q182 0 219 168v760h219v-1133h-219v90q-20 -43 -93 -76.5t-171 -33.5q-76 0 -137 24v-387z" />
<glyph unicode="&#x2013;" horiz-adv-x="997" d="M45 686v217h907v-217h-907z" />
<glyph unicode="&#x2014;" horiz-adv-x="1558" d="M45 686v217h1468v-217h-1468z" />
<glyph unicode="&#x2018;" horiz-adv-x="335" d="M53 1296q0 305 189 328v-41q-51 -12 -75 -39.5t-30 -99.5h39q45 0 81 -46t36 -102q0 -59 -37 -103t-86 -44q-53 0 -85 43t-32 104z" />
<glyph unicode="&#x2019;" horiz-adv-x="339" d="M43 1382.5q0 63.5 36 105.5t91 42q49 0 83 -43t34 -105q0 -139 -49.5 -225t-143.5 -100v41q53 8 79 37.5t30 101.5h-33q-55 0 -91 41t-36 104.5z" />
<glyph unicode="&#x201a;" horiz-adv-x="335" d="M43 147q0 63 34 106.5t87 43.5q45 0 82 -44t37 -106q0 -129 -52.5 -221t-146.5 -108v35q53 12 76.5 43.5t32.5 103.5h-37q-51 0 -82 44t-31 103z" />
<glyph unicode="&#x201c;" horiz-adv-x="671" d="M53 1296q0 305 189 328v-41q-51 -12 -75 -39.5t-30 -99.5h39q45 0 81 -46t36 -102q0 -59 -37 -103t-86 -44q-53 0 -85 43t-32 104zM389 1296q0 305 189 328v-41q-51 -12 -75 -39.5t-30 -99.5h39q45 0 81 -46t36 -102q0 -59 -37 -103t-86 -44q-53 0 -85 43t-32 104z" />
<glyph unicode="&#x201d;" horiz-adv-x="679" d="M43 1382.5q0 63.5 36 105.5t91 42q49 0 83 -43t34 -105q0 -139 -49.5 -225t-143.5 -100v41q53 8 79 37.5t30 101.5h-33q-55 0 -91 41t-36 104.5zM383 1382.5q0 63.5 36 105.5t91 42q49 0 83 -43t34 -105q0 -139 -49.5 -225t-143.5 -100v41q53 8 79 37.5t30 101.5h-33 q-55 0 -91 41t-36 104.5z" />
<glyph unicode="&#x201e;" horiz-adv-x="671" d="M43 147q0 63 34 106.5t87 43.5q45 0 82 -44t37 -106q0 -129 -52.5 -221t-146.5 -108v35q53 12 76.5 43.5t32.5 103.5h-37q-51 0 -82 44t-31 103zM379 147q0 63 33.5 106.5t87.5 43.5q45 0 81.5 -44t36.5 -106q0 -129 -52 -221t-146 -108v35q53 12 76.5 43.5t31.5 103.5 h-36q-51 0 -82 44t-31 103z" />
<glyph unicode="&#x2022;" horiz-adv-x="872" d="M145 725q0 119 85 205t206 86q119 0 205 -87t86 -204q0 -121 -85 -207t-206 -86t-206 86t-85 207z" />
<glyph unicode="&#x2026;" horiz-adv-x="1826" d="M121 147q0 66 30.5 108t84.5 42q49 0 83.5 -44t34.5 -106q0 -59 -35.5 -103t-82.5 -44q-51 0 -83 43t-32 104zM797 147q0 66 30.5 108t83.5 42q49 0 84 -44t35 -106q0 -59 -36 -103t-83 -44q-51 0 -82.5 43t-31.5 104zM1473 147q0 66 30.5 108t83.5 42q49 0 84 -44 t35 -106q0 -59 -36 -103t-83 -44q-51 0 -82.5 43t-31.5 104z" />
<glyph unicode="&#x2039;" horiz-adv-x="610" d="M109 657v158l413 213v-162l-270 -127l270 -127v-157z" />
<glyph unicode="&#x203a;" horiz-adv-x="610" d="M109 455v163l272 127l-272 125v158l413 -203v-157z" />
<glyph unicode="&#x20ac;" horiz-adv-x="1185" d="M23 463l43 221h63v123h-106l43 213h96q63 221 205.5 346t353.5 125q229 0 381 -129l-115 -238q-113 121 -266 121q-109 0 -189.5 -59.5t-123.5 -165.5h526l-103 -217h-473v-119h416l-106 -221h-256q106 -238 317 -238q119 0 240 92l145 -190q-143 -147 -393 -147 q-201 0 -348.5 131t-210.5 352h-139z" />
<glyph unicode="&#x2122;" horiz-adv-x="1828" d="M72 1300v170h669v-170h-241v-786h-185v786h-243zM905 514v956h217l191 -528l186 528h207v-956h-172v596l-215 -596h-12l-230 596v-596h-172z" />
<glyph unicode="&#xe000;" horiz-adv-x="1135" d="M0 1135h1135v-1135h-1135v1135z" />
<glyph unicode="&#xfb01;" horiz-adv-x="1042" d="M25 915v218h108v86q0 150 81 234.5t230 84.5q45 0 107 -10v-199q-51 10 -94 10q-63 0 -90 -30.5t-27 -89.5v-86h215v-218h-205v-915h-217v915h-108zM688 1395q0 68 32 108.5t91 40.5q51 0 87 -42t36 -107q0 -59 -37 -102.5t-86 -43.5q-55 0 -89 42.5t-34 103.5zM700 0 v1133h220v-1133h-220z" />
<glyph unicode="&#xfb02;" horiz-adv-x="1040" d="M25 915v218h108v86q0 150 81 234.5t230 84.5q45 0 107 -10v-199q-51 10 -94 10q-63 0 -90 -30.5t-27 -89.5v-86h215v-218h-205v-915h-217v915h-108zM700 0v1417l218 94v-1511h-218z" />
<glyph unicode="&#xfb03;" horiz-adv-x="1618" d="M1265 1395q0 68 31.5 108.5t90.5 40.5q51 0 87 -42t36 -107q0 -59 -36.5 -102.5t-86.5 -43.5q-55 0 -88.5 42.5t-33.5 103.5zM1277 0v1133h219v-1133h-219zM602 915v218h108v86q0 150 81 234.5t230 84.5q45 0 107 -10v-199q-51 10 -94 10q-63 0 -90 -30.5t-27 -89.5v-86 h215v-218h-205v-915h-217v915h-108zM25 915v218h108v86q0 150 81 234.5t230 84.5q45 0 107 -10v-199q-51 10 -94 10q-63 0 -90 -30.5t-27 -89.5v-86h215v-218h-205v-915h-217v915h-108z" />
<glyph unicode="&#xfb04;" horiz-adv-x="1616" d="M1277 0v1417l217 94v-1511h-217zM602 915v218h108v86q0 150 81 234.5t230 84.5q45 0 107 -10v-199q-51 10 -94 10q-63 0 -90 -30.5t-27 -89.5v-86h215v-218h-205v-915h-217v915h-108zM25 915v218h108v86q0 150 81 234.5t230 84.5q45 0 107 -10v-199q-51 10 -94 10 q-63 0 -90 -30.5t-27 -89.5v-86h215v-218h-205v-915h-217v915h-108z" />
</font>
</defs>
</svg>
